<svg width="165" height="220" viewBox="0 0 165 220" fill="none" xmlns="http://www.w3.org/2000/svg">
<mask id="mask0_10_82" style="mask-type:alpha" maskUnits="userSpaceOnUse" x="0" y="55" width="165" height="165">
<path d="M165 137.5C165 183.063 128.063 220 82.5 220C36.9365 220 0 183.063 0 137.5C0 91.9365 36.9365 55 82.5 55C128.063 55 165 91.9365 165 137.5Z" fill="#074F57"/>
</mask>
<g mask="url(#mask0_10_82)">
<path d="M165 137.5C165 183.063 128.063 220 82.5 220C36.9365 220 0 183.063 0 137.5C0 91.9365 36.9365 55 82.5 55C128.063 55 165 91.9365 165 137.5Z" fill="#074F57"/>
<path d="M167.674 210.726L105.439 125.323L227.538 123.645L167.674 210.726Z" fill="#E4C5AF"/>
<path d="M118.29 186.177L48.9611 91.0384L184.978 89.169L118.29 186.177Z" fill="#E4C5AF"/>
<path d="M80.2899 168.177L10.961 73.0384L146.978 71.169L80.2899 168.177Z" fill="#E4C5AF"/>
<path d="M27.2899 186.177L-42.039 91.0384L93.978 89.169L27.2899 186.177Z" fill="#E4C5AF"/>
<path d="M165.674 194.726L103.439 109.323L225.538 107.645L165.674 194.726Z" fill="#9ECE9A"/>
<path d="M116.29 170.177L46.9611 75.0384L182.978 73.169L116.29 170.177Z" fill="#9ECE9A"/>
<path d="M78.2899 152.177L8.96104 57.0384L144.978 55.169L78.2899 152.177Z" fill="#9ECE9A"/>
<path d="M25.2899 170.177L-44.039 75.0384L91.978 73.169L25.2899 170.177Z" fill="#9ECE9A"/>
</g>
<path d="M82 123L17.0481 10.5L146.952 10.5L82 123Z" fill="#313131"/>
<path d="M82 123L17.0481 10.5L146.952 10.5L82 123Z" fill="#313131"/>
<mask id="mask1_10_82" style="mask-type:alpha" maskUnits="userSpaceOnUse" x="34" y="27" width="96" height="83">
<path d="M82 110L34.3686 27.5L129.631 27.5L82 110Z" fill="#DEDEDE"/>
</mask>
<g mask="url(#mask1_10_82)">
<path d="M82 110L34.3686 27.5L129.631 27.5L82 110Z" fill="#DEDEDE"/>
<path d="M-7.99998 109.103L167.792 62L171.415 75.523L-4.37652 122.626L-7.99998 109.103Z" fill="#757575"/>
<path d="M-16 88.1032L159.792 41L163.415 54.5229L-12.3765 101.626L-16 88.1032Z" fill="#757575"/>
<path d="M-25 65.1032L150.792 18L154.415 31.523L-21.3765 78.6262L-25 65.1032Z" fill="#757575"/>
<path d="M-39 45.1032L136.792 -2L140.415 11.523L-35.3765 58.6262L-39 45.1032Z" fill="#757575"/>
</g>
</svg>
